<svg width="256" height="256" viewBox="0 0 256 256" fill="none" xmlns="http://www.w3.org/2000/svg">
  <rect width="256" height="256" rx="72" fill="url(#bg)"/>
  <rect x="18" y="18" width="220" height="220" rx="54" fill="url(#panel)" stroke="url(#stroke)" stroke-width="2"/>
  <path d="M72 128C72 91.5492 101.549 62 138 62H171L147.75 85.25H138C114.943 85.25 96.25 103.943 96.25 127C96.25 150.057 114.943 168.75 138 168.75H147.75L171 192H138C101.549 192 72 162.451 72 126V128Z" fill="url(#shell)"/>
  <path d="M116 74H150C171.539 74 189 91.4609 189 113V145C189 166.539 171.539 184 150 184H116L139.5 160.5H149.25C157.81 160.5 164.75 153.56 164.75 145V113C164.75 104.44 157.81 97.5 149.25 97.5H139.5L116 74Z" fill="url(#accent)"/>
  <path d="M124 108L147.5 131.5L124 155" stroke="white" stroke-width="15" stroke-linecap="round" stroke-linejoin="round"/>
  <path d="M90 203L106 187" stroke="#22D3EE" stroke-width="8" stroke-linecap="round"/>
  <path d="M150 69L166 53" stroke="#67E8F9" stroke-width="8" stroke-linecap="round"/>
  <circle cx="88" cy="205" r="9" fill="#A5F3FC"/>
  <circle cx="168" cy="51" r="9" fill="#A5F3FC"/>
  <defs>
    <linearGradient id="bg" x1="24" y1="16" x2="232" y2="240" gradientUnits="userSpaceOnUse">
      <stop stop-color="#020617"/>
      <stop offset="0.45" stop-color="#0F172A"/>
      <stop offset="1" stop-color="#082F49"/>
    </linearGradient>
    <linearGradient id="panel" x1="39" y1="28" x2="221" y2="228" gradientUnits="userSpaceOnUse">
      <stop stop-color="#0B1120"/>
      <stop offset="1" stop-color="#111827"/>
    </linearGradient>
    <linearGradient id="stroke" x1="45" y1="20" x2="210" y2="224" gradientUnits="userSpaceOnUse">
      <stop stop-color="#38BDF8"/>
      <stop offset="1" stop-color="#22D3EE" stop-opacity="0.2"/>
    </linearGradient>
    <linearGradient id="shell" x1="84" y1="76" x2="170" y2="188" gradientUnits="userSpaceOnUse">
      <stop stop-color="#BAE6FD"/>
      <stop offset="1" stop-color="#38BDF8"/>
    </linearGradient>
    <linearGradient id="accent" x1="125" y1="74" x2="188" y2="184" gradientUnits="userSpaceOnUse">
      <stop stop-color="#22D3EE"/>
      <stop offset="1" stop-color="#0EA5E9"/>
    </linearGradient>
  </defs>
</svg>
